<?xml version="1.0" encoding="UTF-8"?>
<svg version="1.1" xmlns="http://www.w3.org/2000/svg" width="3210" height="915">
<path d="M0 0 C0.99 0 1.98 0 3 0 C3.35078613 0.63164063 3.70157227 1.26328125 4.06298828 1.9140625 C11.7084389 15.66448098 19.47746848 29.3289597 27.43359375 42.90234375 C31.15334912 49.25046615 34.82895249 55.62362113 38.5 62 C43.30832078 70.34809759 48.1390576 78.68243316 53 87 C59.74713114 98.54722486 66.4333937 110.12902119 73.10888672 121.71777344 C76.23680148 127.14659942 79.36858448 132.57319281 82.5 138 C83.75001879 140.16665583 85.00001878 142.3333225 86.25 144.5 C86.86875 145.5725 87.4875 146.645 88.125 147.75 C93.75 157.5 93.75 157.5 95.62524414 160.75048828 C96.87435518 162.91557071 98.12354129 165.08060982 99.37280273 167.24560547 C102.51202309 172.68615706 105.64990563 178.12747216 108.78515625 183.5703125 C109.40962646 184.65393066 110.03409668 185.73754883 110.67749023 186.85400391 C111.9287596 189.02529092 113.17957741 191.19683821 114.42993164 193.36865234 C117.52004898 198.7291842 120.6282336 204.07782783 123.7734375 209.40625 C134.77074028 228.04931043 145.08168476 246.52656454 150.75 267.5625 C150.94875732 268.29315674 151.14751465 269.02381348 151.35229492 269.77661133 C154.5614319 282.32567118 155.37336266 294.80676434 155.3125 307.6875 C155.31167419 308.42924469 155.31084839 309.17098938 155.30999756 309.93521118 C155.27362338 324.1577045 153.91690612 337.29082859 150 351 C101.16 351 52.32 351 2 351 C-0.99323752 365.96618761 -2.50830266 377.01120411 5.31640625 390.22265625 C12.10240565 399.81920581 20.71984059 405.6223205 32.1435194 408.54919338 C35.94293218 409.14881252 39.69980366 409.1535205 43.53572083 409.15821838 C44.39345539 409.16315636 45.25118996 409.16809434 46.13491648 409.17318195 C49.00766701 409.18853427 51.88039522 409.19691145 54.75317383 409.20532227 C56.81300045 409.21490257 58.8728251 409.22491274 60.93264771 409.23532104 C66.52513593 409.26235967 72.11763259 409.28337491 77.71015 409.30332303 C83.55447822 409.32518898 89.39878049 409.3525747 95.24308777 409.37937927 C106.31039684 409.42929789 117.37772032 409.47423983 128.44505757 409.51740164 C141.04470912 409.56678109 153.64433462 409.6216966 166.24396098 409.67708123 C192.16261635 409.79088854 218.08129671 409.89773033 244 410 C244.60713333 411.08321533 245.21426666 412.16643066 245.83979797 413.2824707 C246.65007734 414.7260959 247.4603975 416.1696982 248.27075195 417.61328125 C248.6692762 418.32456177 249.06780045 419.03584229 249.47840118 419.76867676 C252.93177495 425.91741774 256.52917033 431.97105258 260.1875 438 C265.8317678 447.35407164 271.3859429 456.75542534 276.87646484 466.20043945 C280.66245046 472.71175994 284.47465094 479.20662081 288.3125 485.6875 C293.26601388 494.05983343 298.21262447 502.43619923 303.1421814 510.82266235 C303.9202247 512.14553278 304.69904953 513.46794387 305.47866821 514.78988647 C306.5672677 516.63606454 307.65311158 518.48383568 308.73828125 520.33203125 C309.36774658 521.40171143 309.99721191 522.4713916 310.64575195 523.57348633 C312 526 312 526 312 527 C276.63605257 527.04585919 241.2721112 527.08106061 205.90814025 527.10213066 C201.72538121 527.10463183 197.54262223 527.1072205 193.35986328 527.10986328 C192.11088746 527.11065021 192.11088746 527.11065021 190.8366798 527.11145304 C177.38552275 527.12013636 163.93438294 527.13589482 150.48323609 527.15430559 C136.66309859 527.1730625 122.84297006 527.18412892 109.02282035 527.18817699 C100.50711664 527.19091008 91.99146166 527.1995166 83.47577296 527.21583293 C77.62233774 527.22647144 71.76892742 527.22958523 65.91548325 527.22700275 C62.54720803 527.22573204 59.17908517 527.2286888 55.8108139 527.23841095 C38.2240035 527.28665278 20.79997493 527.11951382 3.625 522.875 C2.76052246 522.66399658 1.89604492 522.45299316 1.00537109 522.2355957 C-27.17952132 514.98622673 -52.69099244 499.75700037 -73 479 C-71.575794 475.19037936 -69.82091117 471.75596032 -67.796875 468.23046875 C-67.15355225 467.10688965 -66.51022949 465.98331055 -65.84741211 464.82568359 C-65.14840128 463.61288279 -64.44926061 462.40015681 -63.75 461.1875 C-63.0252852 459.92540022 -62.30075976 458.66319169 -61.57641602 457.40087891 C-56.49707067 448.5586574 -51.37094896 439.74381366 -46.22167969 430.94213867 C-41.95277453 423.6442919 -37.71943535 416.3265482 -33.5 409 C-29.19297538 401.52278225 -24.87447135 394.05268326 -20.52368164 386.60083008 C-19.35438679 384.59781915 -18.18686403 382.59377252 -17.02124023 380.58862305 C-14.26614182 375.85331003 -11.48638148 371.13696156 -8.64453125 366.453125 C-8.12342773 365.58357178 -7.60232422 364.71401855 -7.06542969 363.81811523 C-6.09233958 362.19582418 -5.10798394 360.58021563 -4.11035156 358.97290039 C-1.62844547 354.8643055 -1.62844547 354.8643055 -1.00390625 350.19921875 C-4.52582191 342.42338143 -13.52600915 338.92198027 -21 336 C-30.53078302 332.82307233 -42.59367552 334.14677357 -51.45703125 338.5234375 C-63.22746931 345.3578854 -69.37381199 355.17737341 -75.9375 366.875 C-77.25507517 369.19093887 -78.57398288 371.50607236 -79.89453125 373.8203125 C-80.23107727 374.41158936 -80.56762329 375.00286621 -80.91436768 375.61206055 C-84.57633424 382.03592096 -88.34537037 388.39467682 -92.125 394.75 C-92.79660156 395.88050781 -93.46820313 397.01101563 -94.16015625 398.17578125 C-95.48316865 400.40225154 -96.80656432 402.62849413 -98.13037109 404.85449219 C-100.90592501 409.52414962 -103.67329718 414.19861617 -106.4375 418.875 C-106.95344727 419.74761475 -107.46939453 420.62022949 -108.00097656 421.51928711 C-111.03170413 426.65067034 -114.04995657 431.7892311 -117.05859375 436.93359375 C-118.49731588 439.39327595 -119.93608762 441.85292909 -121.375 444.3125 C-121.73484985 444.92763458 -122.09469971 445.54276917 -122.4654541 446.17654419 C-128.0902462 455.78721727 -133.79277976 465.34850668 -139.53979492 474.88671875 C-143.81549146 481.99448833 -148.02016024 489.14071877 -152.1875 496.3125 C-156.68324176 504.04873681 -161.21382088 511.7619319 -165.8125 519.4375 C-166.32256592 520.29061768 -166.83263184 521.14373535 -167.3581543 522.02270508 C-167.82390869 522.79767334 -168.28966309 523.5726416 -168.76953125 524.37109375 C-169.17792236 525.05099365 -169.58631348 525.73089355 -170.00708008 526.43139648 C-171 528 -171 528 -172 529 C-173.74626524 529.09629597 -175.49645905 529.12187539 -177.24537659 529.12025452 C-178.38266205 529.12162918 -179.51994751 529.12300385 -180.69169617 529.12442017 C-181.95045059 529.12082489 -183.20920502 529.11722961 -184.50610352 529.11352539 C-185.82298157 529.11367142 -187.13985962 529.11381744 -188.49664307 529.1139679 C-192.11838268 529.11425587 -195.74008946 529.10835924 -199.36182141 529.10139394 C-203.14281884 529.0951603 -206.92381695 529.09455659 -210.70481873 529.09336853 C-217.8694429 529.09025524 -225.0340519 529.08204189 -232.19866937 529.07201904 C-240.35331162 529.06085782 -248.50795457 529.05534743 -256.66260254 529.05032361 C-273.44174393 529.03985928 -290.22087003 529.02225989 -307 529 C-306.23262524 524.55663745 -304.63099639 521.34344366 -302.25 517.5625 C-301.42605338 516.22198668 -300.60320333 514.88079896 -299.78125 513.5390625 C-299.33394531 512.81235352 -298.88664062 512.08564453 -298.42578125 511.33691406 C-295.81965458 507.06536535 -293.28929997 502.74898807 -290.75 498.4375 C-289.62512738 496.53117483 -288.50012594 494.62492567 -287.375 492.71875 C-286.81296875 491.76613281 -286.2509375 490.81351562 -285.671875 489.83203125 C-284.07470364 487.12654238 -282.47534475 484.42236272 -280.875 481.71875 C-276.21084715 473.83728355 -271.55296513 465.95241079 -266.9296875 458.046875 C-265.49485523 455.59371281 -264.06000466 453.14056135 -262.625 450.6875 C-262.26542206 450.0728186 -261.90584412 449.45813721 -261.53536987 448.8248291 C-255.90947235 439.21228709 -250.20511621 429.64957089 -244.45800781 420.10888672 C-239.61135864 412.05046286 -234.85680604 403.94115631 -230.13037109 395.81176758 C-224.1401536 385.50957521 -218.07253812 375.25381322 -212 365 C-209.91579793 361.47968002 -207.83245268 357.95885512 -205.75 354.4375 C-205.22253174 353.54571045 -204.69506348 352.6539209 -204.15161133 351.73510742 C-200.70880494 345.90846569 -197.28326399 340.07188283 -193.86706543 334.22961426 C-190.27250531 328.08275699 -186.66894512 321.94121945 -183.05969238 315.80297852 C-182.01380608 314.02348989 -180.96927911 312.24320822 -179.92480469 310.46289062 C-169.46712503 292.6722356 -158.86951743 276.48824775 -144 262 C-143.48824219 261.443125 -142.97648438 260.88625 -142.44921875 260.3125 C-125.2153823 242.00846814 -98.45245901 227.58074139 -74 222 C-72.68 222 -71.36 222 -70 222 C-68.12402938 225.31195114 -66.24929495 228.62460029 -64.375 231.9375 C-63.79032959 232.97076416 -63.20565918 234.00402832 -62.60327148 235.06860352 C-59.55862346 240.45460249 -56.52355832 245.8455776 -53.51171875 251.25 C-47.75311222 261.58202572 -41.93654474 271.86787075 -35.9375 282.0625 C-30.6820065 290.99998595 -25.67102467 300.04490857 -20.76904297 309.18041992 C-17.12255224 315.96436782 -13.38797457 322.6903285 -9.5625 329.375 C-9.09054199 330.2002417 -8.61858398 331.0254834 -8.13232422 331.87573242 C-4.82601675 337.62692719 -1.42988707 343.32175636 2 349 C11.20242102 348.64606073 19.49155094 344.65872099 26.3125 338.5 C33.79144307 330.41085028 38.05520943 319.86557821 38.3125 308.9375 C38.34988281 307.91527344 38.38726562 306.89304687 38.42578125 305.83984375 C37.27196423 295.43431963 32.497723 286.7180573 27.1875 277.875 C26.18116061 276.16560159 25.174839 274.45619241 24.16958618 272.74615479 C23.13383395 270.98728866 22.09339024 269.23126468 21.05224609 267.47558594 C17.8185975 262.01245882 14.66419522 256.50352899 11.5 251 C10.25164049 248.83574227 9.00294167 246.67168022 7.75390625 244.5078125 C5.23930564 240.14934612 2.72645339 235.78987809 0.21484375 231.4296875 C-5.83055159 220.93767906 -11.89110219 210.45518324 -18 200 C-24.74270595 188.46007441 -31.42462525 176.88564479 -38.09570312 165.30419922 C-40.65506418 160.86337967 -43.21823933 156.42477585 -45.78466797 151.98803711 C-47.04252586 149.80623306 -48.29427073 147.62089207 -49.53955078 145.43188477 C-52.50870267 140.22456508 -55.54351036 135.10632825 -58.8203125 130.0859375 C-59.40981689 129.15177002 -59.99932129 128.21760254 -60.60668945 127.25512695 C-61.70851185 125.51589707 -62.84580079 123.79841408 -64.02416992 122.11010742 C-65.54838351 119.65718341 -66.51268031 117.85071933 -67 115 C-65.70567632 110.86272571 -63.4207616 107.56594038 -61 104 C-59.9700399 102.23933045 -58.95293761 100.47107249 -57.94921875 98.6953125 C-56.86369644 96.83753718 -55.77637628 94.98081149 -54.6875 93.125 C-54.08993896 92.10398193 -53.49237793 91.08296387 -52.87670898 90.03100586 C-51.59069874 87.83423004 -50.30397573 85.63787134 -49.01660156 83.44189453 C-47.3054724 80.52137409 -45.59699447 77.59934063 -43.89015198 74.67631531 C-36.1949023 61.49908154 -28.43735832 48.36487986 -20.55664062 35.29736328 C-13.53911491 23.62724064 -6.76393935 11.81840721 0 0 Z " fill="#008752" transform="translate(307,0)"/>
<path d="M0 0 C0.93199219 0.41894531 1.86398437 0.83789062 2.82421875 1.26953125 C14.00232379 6.80277298 23.96105623 16.03609237 30 27 C30.67578125 29.28515625 30.67578125 29.28515625 31 31 C33.41690176 28.66106282 35.72862552 26.31789582 37.9140625 23.7578125 C54.3464529 4.57673134 78.07607518 -5.73336111 103 -8 C127.97937414 -9.46499312 155.59235819 -7.81442734 175.46484375 9.09765625 C180.80110923 14.1320365 184.68308033 19.47284521 188 26 C188.66128906 27.28583984 188.66128906 27.28583984 189.3359375 28.59765625 C192.24336744 34.86184621 193.87635039 41.20345181 195.25 47.9375 C195.41322754 48.73526855 195.57645508 49.53303711 195.74462891 50.35498047 C197.92796807 61.89017279 198.14711672 73.52845171 198.11352539 85.2355957 C198.11324246 86.60695392 198.11340332 87.97831228 198.1139679 89.34967041 C198.11425173 93.02854899 198.10842268 96.70739415 198.10139394 100.38626504 C198.09509076 104.2472696 198.09455114 108.10827515 198.09336853 111.96928406 C198.09027557 119.26100608 198.08208994 126.55271288 198.07201904 133.84442824 C198.05869042 143.71160948 198.05334154 153.57879495 198.04751682 163.44598293 C198.03814842 178.96399999 198.01821601 194.48198496 198 210 C170.94 210 143.88 210 116 210 C115.96261719 201.18796875 115.92523437 192.3759375 115.88671875 183.296875 C115.85257289 176.98823457 115.81657794 170.67962582 115.77792263 164.37101364 C115.72815367 156.20862233 115.68267915 148.04628299 115.65356445 139.88378906 C115.63049061 133.41881934 115.59698918 126.95399922 115.55129844 120.48914838 C115.52749176 117.07042856 115.50868127 113.65185574 115.50238609 110.23305511 C115.49270473 106.4035213 115.4645957 102.57451886 115.43237305 98.74511719 C115.43452568 97.07059479 115.43452568 97.07059479 115.4367218 95.36224365 C115.3079129 84.47401137 113.70826947 72.01885073 105.91796875 63.8046875 C98.52237698 56.96100556 91.61086899 54.6199854 81.55078125 54.7890625 C71.59903914 55.61202433 62.09455779 58.80593913 55 66.0390625 C42.60983328 81.15292966 39.91445082 100.312794 39.79467773 119.29321289 C39.78477814 120.27963776 39.77487854 121.26606262 39.76467896 122.28237915 C39.73332791 125.51244789 39.70841193 128.74253128 39.68359375 131.97265625 C39.66300137 134.22424176 39.64200433 136.4758236 39.62062073 138.72740173 C39.56563579 144.63081884 39.51612327 150.53426946 39.46777344 156.43774414 C39.40851392 163.53311549 39.34241665 170.62842608 39.27747345 177.72374725 C39.17976095 188.48246081 39.09070187 199.24121477 39 210 C11.94 210 -15.12 210 -43 210 C-43.03867188 196.58279297 -43.03867188 196.58279297 -43.078125 182.89453125 C-43.10651085 176.48818963 -43.13738106 170.08189751 -43.1718235 163.67558956 C-43.21604956 155.38829945 -43.25451974 147.10111745 -43.27099609 138.8137207 C-43.28406549 132.24946273 -43.31116353 125.68543246 -43.35461307 119.12130278 C-43.37711016 115.65052746 -43.39291784 112.18003171 -43.39188385 108.70917702 C-43.39098955 104.81996508 -43.42143786 100.93131752 -43.45410156 97.04223633 C-43.4490712 95.91078186 -43.44404083 94.77932739 -43.43885803 93.61358643 C-43.58515149 82.27782927 -46.19652491 70.61259117 -54 62 C-60.48067879 56.52772558 -68.06766242 54.50781565 -76.44921875 54.75390625 C-89.59131983 56.02182718 -98.71271309 60.42853323 -107.21484375 70.51953125 C-120.61305623 89.13630351 -119.29008632 115.00538042 -119.4140625 136.85546875 C-119.43282837 138.98066412 -119.45240553 141.10585246 -119.4727478 143.23103333 C-119.52350375 148.75617275 -119.56342741 154.28133619 -119.60089111 159.80657959 C-119.64842525 166.47254976 -119.70977457 173.13840615 -119.76873779 179.80428314 C-119.85625832 189.86947471 -119.92651619 199.93465219 -120 210 C-146.73 210 -173.46 210 -201 210 C-201 139.71 -201 69.42 -201 -3 C-176.58 -3 -152.16 -3 -127 -3 C-126.505 14.82 -126.505 14.82 -126 33 C-123.03 29.04 -120.06 25.08 -117 21 C-89.44535668 -9.84474998 -36.80567643 -16.8350997 0 0 Z " fill="#000000" transform="translate(1560,311)"/>
<path d="M0 0 C1.08741989 0.00090637 1.08741989 0.00090637 2.19680786 0.00183105 C12.82151533 0.0258321 23.20783783 0.27022293 33.6875 2.1875 C34.76112793 2.38085938 34.76112793 2.38085938 35.85644531 2.578125 C60.64258096 7.17169454 84.08800159 17.17806715 99.69921875 37.8515625 C109.74711406 52.97789513 113.81234687 69.71821196 113.86108398 87.6706543 C113.867771 88.70268982 113.87445801 89.73472534 113.88134766 90.79803467 C113.89535814 93.03289824 113.90726479 95.26777578 113.91729546 97.50266075 C113.93381004 101.05828723 113.95705761 104.61381243 113.98219299 108.16938782 C114.0526387 118.27734236 114.11267025 128.38534046 114.16430664 138.4934082 C114.19642011 144.68723679 114.23778181 150.88095129 114.28450203 157.07468605 C114.30034153 159.41660282 114.31274434 161.7585458 114.32140923 164.10050011 C114.3685388 176.66834663 114.71010381 189.0487118 116.16566467 201.53889465 C116.78732763 207.07678293 117.22471479 212.63407752 117.6875 218.1875 C92.9375 218.1875 68.1875 218.1875 42.6875 218.1875 C42.0275 207.9575 41.3675 197.7275 40.6875 187.1875 C39.058125 189.1675 37.42875 191.1475 35.75 193.1875 C21.52612787 210.0628897 2.98145215 221.18562691 -19.3125 223.1875 C-47.80384419 224.68615317 -78.17652302 222.33772654 -100.625 202.75 C-102.20424333 201.24656035 -103.76800884 199.72661901 -105.3125 198.1875 C-105.96089844 197.56230469 -106.60929687 196.93710937 -107.27734375 196.29296875 C-116.63434573 186.56741964 -120.35702279 173.33668638 -121.3125 160.1875 C-121.36664062 159.52492188 -121.42078125 158.86234375 -121.4765625 158.1796875 C-122.10958897 143.04460001 -117.39069769 127.05756142 -107.53515625 115.5625 C-91.10002257 98.00088088 -69.58345903 90.16418287 -46.3125 86.1875 C-45.46171875 86.03796875 -44.6109375 85.8884375 -43.734375 85.734375 C-29.50178879 83.34856575 -15.33329904 82.89979666 -0.9375 82.875 C-0.10458435 82.87141479 0.7283313 82.86782959 1.58648682 82.86413574 C13.73812854 82.83598406 25.62898729 83.70375428 37.6875 85.1875 C34.5856765 73.77859541 32.02618501 65.31949358 21.8125 58.375 C10.27922097 51.79086753 -3.10187488 50.80809711 -16.125 50.875 C-17.29498535 50.88063965 -18.4649707 50.8862793 -19.67041016 50.89208984 C-41.9013307 51.19604584 -63.6925588 54.97668968 -84.03515625 64.20703125 C-86.13130219 65.10948859 -88.09920018 65.66479008 -90.3125 66.1875 C-91.32618644 55.04037768 -91.4326299 43.99487474 -91.375 32.8125 C-91.36996967 31.09375132 -91.36540951 29.3750012 -91.36132812 27.65625 C-91.3504561 23.49996349 -91.33327804 19.3437483 -91.3125 15.1875 C-84.44944689 12.25827273 -77.61572102 9.9815043 -70.375 8.1875 C-69.35229004 7.93331299 -68.32958008 7.67912598 -67.27587891 7.41723633 C-45.15304033 2.12960726 -22.70685562 -0.03523022 0 0 Z M-37.53515625 134.1796875 C-43.0021732 140.12941847 -44.86804977 145.33358661 -44.68359375 153.40625 C-43.85602123 159.60868827 -40.32652078 163.60908625 -35.625 167.5 C-25.08788932 174.64809542 -11.81490204 174.69584587 0.38671875 172.53125 C7.8673778 170.47738858 13.745664 167.1270986 19.6875 162.1875 C20.38488281 161.63707031 21.08226562 161.08664062 21.80078125 160.51953125 C31.56647691 151.92951157 36.28877861 139.33811783 37.53125 126.6875 C37.60859375 125.45 37.60859375 125.45 37.6875 124.1875 C-2.05268014 119.6908898 -2.05268014 119.6908898 -37.53515625 134.1796875 Z " fill="#000000" transform="translate(1203.3125,302.8125)"/>
<path d="M0 0 C1.27423828 1.03060547 1.27423828 1.03060547 2.57421875 2.08203125 C25.70649617 21.74269582 34.75792038 50.82128342 38 80 C38 89.9 38 99.8 38 110 C-15.13 110 -68.26 110 -123 110 C-117.42164405 125.61939666 -112.58963911 134.23112358 -98.25 141.625 C-74.95542951 151.37841773 -44.30386951 150.76254135 -20 145 C-19.25830566 144.82839355 -18.51661133 144.65678711 -17.75244141 144.47998047 C-7.51484915 142.04308072 2.07745119 138.54895667 11.71875 134.35546875 C15 133 15 133 17 133 C17 150.49 17 167.98 17 186 C-21.86497662 198.95499221 -68.41028119 205.33395807 -109 196 C-110.32837891 195.70198486 -110.32837891 195.70198486 -111.68359375 195.39794922 C-142.92244179 188.16773734 -172.69433055 172.34644221 -190.54931641 144.8449707 C-206.16671294 119.64750249 -209.65327949 89.09043407 -203.54345703 60.31298828 C-199.44174234 42.85582523 -192.16575669 27.27714719 -180 14 C-179.17886719 13.08605469 -178.35773437 12.17210937 -177.51171875 11.23046875 C-135.86568753 -32.88347543 -46.86709984 -38.74838963 0 0 Z M-112.93359375 36.99609375 C-120.56138567 45.93619396 -122.84689709 55.46897086 -124 67 C-94.96 67 -65.92 67 -36 67 C-36 53.65133381 -38.20450686 43.86886249 -47.66015625 34.32421875 C-58.42027724 24.4464767 -70.85122972 23.41572174 -84.84375 23.69140625 C-96.53311808 24.20175728 -104.88897987 28.69145194 -112.93359375 36.99609375 Z " fill="#000000" transform="translate(1030,327)"/>
<path d="M0 0 C32.01 0 64.02 0 97 0 C97 3.96 97 7.92 97 12 C93.60520356 12.67235579 90.20933191 13.3380762 86.8125 14 C85.37293945 14.28617188 85.37293945 14.28617188 83.90429688 14.578125 C82.50727539 14.84882813 82.50727539 14.84882813 81.08203125 15.125 C80.22843018 15.29257813 79.3748291 15.46015625 78.49536133 15.6328125 C75.95954897 16.00595229 73.55918603 16.06412996 71 16 C70.68147889 19.43696798 70.37144555 22.87465913 70.0625 26.3125 C69.97548828 27.25029297 69.88847656 28.18808594 69.79882812 29.15429688 C68.42706298 44.54855019 67.84893491 59.92798094 67.85473633 75.37817383 C67.85173171 77.01700922 67.84832628 78.65584392 67.84455872 80.29467773 C67.83584363 84.68592662 67.83338587 89.07715594 67.83274293 93.46841264 C67.83202489 96.23148878 67.82987653 98.99456017 67.82724571 101.75763512 C67.81803131 111.45325401 67.81390562 121.14885929 67.81469727 130.84448242 C67.81529596 139.79032565 67.80477492 148.73610818 67.7889536 157.68193609 C67.77574277 165.43644225 67.77051901 173.19092891 67.77115268 180.94544619 C67.77140386 185.54376446 67.76876877 190.14202872 67.75797462 194.74033546 C67.70283323 219.97974144 68.6446921 244.85599937 71 270 C72.03357384 269.98462944 72.03357384 269.98462944 73.08802795 269.96894836 C78.29030158 269.90283204 83.41141774 270.07567647 88.59765625 270.48828125 C98.34916358 271.18876178 108.10191501 271.24377443 117.875 271.25 C119.31764221 271.25101212 119.31764221 271.25101212 120.78942871 271.25204468 C137.33868272 271.23376142 153.57483611 270.46409173 170.00292969 268.43896484 C173.51191856 268.02759388 177.01796277 267.78655342 180.54359436 267.56942749 C197.06339674 266.89254499 197.06339674 266.89254499 210.69140625 258.77734375 C214.88335013 252.84834299 217.41235039 246.5109106 216.74169922 239.17431641 C215.51303312 233.37912495 213.28851014 228.02750501 211.00634766 222.58007812 C206.36469469 210.67978978 206.71501625 197.33372606 206.625 184.75 C206.61687286 184.08035217 206.60874573 183.41070435 206.60037231 182.72076416 C206.36157544 156.46438383 215.22905137 131.21188465 232 111 C232.68578125 110.15050781 233.3715625 109.30101562 234.078125 108.42578125 C250.24491288 89.35495925 273.42029336 77.65718819 298 74 C298.72445312 73.88914062 299.44890625 73.77828125 300.1953125 73.6640625 C327.14042938 70.28450547 355.55245564 75.12377357 377.91796875 91.08203125 C380.33699361 92.9960252 382.67522526 94.9732733 385 97 C385.62132813 97.48984375 386.24265625 97.9796875 386.8828125 98.484375 C407.06898425 114.59710402 416.90549028 142.19518977 420 167 C420.24109823 172.45539531 420.24570086 177.91480535 420.25 183.375 C420.25067474 184.14044128 420.25134949 184.90588257 420.25204468 185.69451904 C420.23652528 196.75157896 419.89697758 207.26482905 417 218 C416.83371094 218.64952637 416.66742187 219.29905273 416.49609375 219.96826172 C409.68700118 246.15174454 394.26691351 269.95032192 371.00585938 284.22363281 C343.4987301 300.34894618 311.8731741 303.99086304 280.98535156 296.51220703 C260.042002 290.95330165 242.52352002 278.77310371 229 262 C228.67 261.34 228.34 260.68 228 260 C225.47816505 268.79441933 223.41479679 277.50691812 221.9519043 286.53881836 C221.0897557 291.8204886 221.0897557 291.8204886 220 294 C196.04051272 294.13144584 172.0810201 294.26187836 148.121521 294.39115143 C136.99312077 294.45121736 125.86472242 294.51159713 114.73632812 294.57275391 C105.0205647 294.62614664 95.30479809 294.67891167 85.5890274 294.73096704 C80.45941417 294.75847135 75.32980288 294.78625991 70.20019531 294.81480408 C46.79984272 294.94480145 23.4007371 295.03305485 0 295 C0 291.04 0 287.08 0 283 C3.39479644 282.32764421 6.79066809 281.6619238 10.1875 281 C11.62706055 280.71382812 11.62706055 280.71382812 13.09570312 280.421875 C14.02705078 280.24140625 14.95839844 280.0609375 15.91796875 279.875 C16.77156982 279.70742188 17.6251709 279.53984375 18.50463867 279.3671875 C21.04045103 278.99404771 23.44081397 278.93587004 26 279 C26.31866793 275.41718914 26.6286386 271.83366847 26.9375 268.25 C27.02451172 267.27289063 27.11152344 266.29578125 27.20117188 265.2890625 C29.09762419 243.09354654 29.16406647 220.94555123 29.16725707 198.68834019 C29.16797541 195.86443708 29.17012434 193.0405386 29.17275429 190.21663666 C29.18196751 180.30474039 29.18609457 170.39285744 29.18530273 160.48095703 C29.1847042 151.34029649 29.19522233 142.19969539 29.2110464 133.05904984 C29.22426473 125.1320946 29.22948068 117.20515842 29.22884732 109.27819228 C29.22859633 104.57922116 29.23121979 99.8803029 29.24202538 95.18134308 C29.29881669 68.64427238 28.26346675 42.44902175 26 16 C25.30890137 15.95391602 24.61780273 15.90783203 23.90576172 15.86035156 C15.77544949 15.29098845 7.9504568 13.70596846 0 12 C0 8.04 0 4.08 0 0 Z M262.47265625 111.5625 C242.43210597 134.58343981 239.50598565 164.67401395 241 194 C242.95306597 220.3600904 250.1450064 246.6561685 269.5 265.6875 C284.13556035 278.24837383 303.06747455 282.89825851 322 282 C337.5412438 280.53489468 353.247321 275.15669875 364.0703125 263.390625 C384.7065287 237.8251102 388.849542 203.40399464 385.50390625 171.5234375 C382.89221547 150.96449111 376.76435363 130.89455121 363 115 C362.36320312 114.17628906 361.72640625 113.35257813 361.0703125 112.50390625 C350.63412312 99.88202437 334.6711769 93.68192654 318.875 91.3125 C296.861457 89.53721427 277.98497077 95.83440368 262.47265625 111.5625 Z " fill="#008752" transform="translate(1793,232)"/>
<path d="M0 0 C78.87 0 157.74 0 239 0 C239 18.81 239 37.62 239 57 C213.59 57 188.18 57 162 57 C162 132.57 162 208.14 162 286 C134.28 286 106.56 286 78 286 C78 210.43 78 134.86 78 57 C52.26 57 26.52 57 0 57 C0 38.19 0 19.38 0 0 Z " fill="#000000" transform="translate(2866,236)"/>
<path d="M0 0 C78.54 0 157.08 0 238 0 C238 18.81 238 37.62 238 57 C212.59 57 187.18 57 161 57 C161 132.24 161 207.48 161 285 C133.28 285 105.56 285 77 285 C77 209.76 77 134.52 77 57 C51.59 57 26.18 57 0 57 C0 38.19 0 19.38 0 0 Z " fill="#000000" transform="translate(623,236)"/>
<path d="M0 0 C4.96598745 0.79396812 9.93396828 1.57525227 14.90206909 2.35586548 C16.9439483 2.67863952 18.98484193 3.00710575 21.02563477 3.33666992 C33.93179633 5.39042519 46.64290862 6.20553307 59.6875 6.5625 C61.17904546 6.60581078 62.67058205 6.64942848 64.16210938 6.69335938 C67.77464429 6.79910473 71.38728094 6.90071966 75 7 C75 10.63 75 14.26 75 18 C68.3092731 21.07773437 62.47694476 22.08699729 55.0703125 22.31640625 C53.78125 22.35830078 52.4921875 22.40019531 51.1640625 22.44335938 C49.81771091 22.48316028 48.47135671 22.52287273 47.125 22.5625 C45.75519667 22.60575183 44.38540479 22.64936812 43.015625 22.69335938 C39.67717843 22.79915522 36.338661 22.90124372 33 23 C33.67691895 23.586604 34.35383789 24.17320801 35.05126953 24.77758789 C35.94442871 25.56383545 36.83758789 26.35008301 37.7578125 27.16015625 C38.64098145 27.93238525 39.52415039 28.70461426 40.43408203 29.50024414 C52.57336143 41.32651262 56.92873967 59.09143693 57.375 75.5625 C56.71457603 97.87932674 47.55055496 117.18851618 31.79663086 132.74707031 C12.48296379 150.88681102 -14.98560541 158.8285741 -41.109375 158.1875 C-52.89604845 157.42295902 -63.76324873 155.66841642 -75 152 C-75.16435547 152.70527832 -75.32871094 153.41055664 -75.49804688 154.13720703 C-77.43688748 162.19600588 -79.85620025 170.02212946 -82.5 177.875 C-82.89058594 179.05835938 -83.28117187 180.24171875 -83.68359375 181.4609375 C-84.06644531 182.605625 -84.44929688 183.7503125 -84.84375 184.9296875 C-85.18599609 185.95304199 -85.52824219 186.97639648 -85.88085938 188.03076172 C-87.05454062 191.14470398 -88.46337917 194.05041345 -90 197 C-89.2471875 196.74605469 -88.494375 196.49210938 -87.71875 196.23046875 C-50.88184792 184.29423956 -3.72928799 182.87504248 31.98828125 199.40234375 C36.6599024 201.88054485 40.85143242 204.73055094 45 208 C45.68449219 208.49757813 46.36898437 208.99515625 47.07421875 209.5078125 C57.42285428 217.59967289 63.93873245 230.1926576 66 243 C67.54510037 258.4205584 64.41719383 273.20241469 54.73095703 285.62792969 C51.67378017 289.2779935 48.38508691 292.65444695 45 296 C44.03126953 296.98419922 44.03126953 296.98419922 43.04296875 297.98828125 C30.10600472 310.24880271 12.2551302 317.25286864 -4.6875 321.8125 C-5.4103418 322.0074707 -6.13318359 322.20244141 -6.87792969 322.40332031 C-38.31834156 330.329827 -75.88713047 328.27844856 -104.625 312.1875 C-116.89684175 304.61768065 -127.89065663 294.27136023 -131.5625 279.859375 C-133.65475363 266.18500307 -131.71810797 254.56558648 -123.66015625 243.1484375 C-120.933931 239.6203813 -118.019636 236.27871719 -115 233 C-109.91061189 234.59043379 -106.12543357 237.7446951 -102 241 C-102.62725179 243.76477972 -103.4207771 245.97620287 -104.5625 248.625 C-107.36156016 256.10763607 -106.68637876 263.25294466 -103.44921875 270.48828125 C-94.84825988 285.39506442 -78.71375173 293.73462966 -62.66015625 298.29296875 C-38.55638286 304.65239063 -11.41100215 304.96519607 11 293 C20.74262478 286.79408148 28.03037812 278.3489428 30.62890625 266.921875 C31.93924196 256.60470543 30.04802114 247.08131616 24.296875 238.44140625 C13.68988875 225.14218876 -4.3536675 220.06060368 -20.65087891 218.18530273 C-45.6422142 216.21394299 -71.4840421 218.23440749 -95.44726562 225.76953125 C-98 226 -98 226 -100.02050781 224.63232422 C-100.65827148 223.9467041 -101.29603516 223.26108398 -101.953125 222.5546875 C-103.005 221.43320312 -103.005 221.43320312 -104.078125 220.2890625 C-104.79484375 219.49242187 -105.5115625 218.69578125 -106.25 217.875 C-106.9821875 217.1015625 -107.714375 216.328125 -108.46875 215.53125 C-114.59283553 208.88548311 -114.59283553 208.88548311 -115 204 C-113.97563163 201.58884054 -112.90541528 199.45475067 -111.625 197.1875 C-103.81392298 182.49004349 -93 160.91827102 -93 144 C-94.73804099 142.40448421 -94.73804099 142.40448421 -97.0625 141.125 C-112.18387798 131.57093123 -121.09283561 116.98154544 -125.3125 99.6875 C-130.28741498 76.99503241 -126.69343517 55.88177047 -115 36 C-113.16981775 33.15008117 -111.20433118 30.56684719 -109 28 C-108.50371094 27.36191406 -108.00742188 26.72382813 -107.49609375 26.06640625 C-93.1001676 8.27096018 -69.76937377 -1.12804181 -47.54296875 -3.71484375 C-31.26576389 -5.02491647 -16.04848186 -2.60984078 0 0 Z M-77.25390625 31.31640625 C-85.17325999 40.67837471 -89.6496132 51.03758358 -92 63 C-92.3403125 64.7015625 -92.3403125 64.7015625 -92.6875 66.4375 C-94.44939314 86.52308178 -90.39127528 105.71288766 -78 122 C-69.73628953 131.36883742 -56.92308455 138.16423344 -44.42016602 139.21728516 C-26.35990596 139.98932196 -10.57542697 138.11372739 3.5078125 125.58203125 C18.69134322 109.48430889 22.85705327 90.32773506 22.34765625 68.90625 C21.59030296 51.94587957 15.39737962 37.7372862 3 26 C-19.79042436 7.1095413 -57.03129451 10.53302885 -77.25390625 31.31640625 Z " fill="#008752" transform="translate(2357,309)"/>
<path d="M0 0 C27.72 0 55.44 0 84 0 C84 94.38 84 188.76 84 286 C56.28 286 28.56 286 0 286 C0 191.62 0 97.24 0 0 Z " fill="#000000" transform="translate(2753,236)"/>
<path d="M0 0 C-1.74042747 8.54883544 -4.34435237 16.74887608 -6.99023438 25.0546875 C-9.36900388 32.63449541 -11.32337938 40.23476706 -13 48 C-14.4375 47.85416667 -15.875 47.70833333 -17.3125 47.5625 C-18.11300781 47.48128906 -18.91351562 47.40007812 -19.73828125 47.31640625 C-22 47 -22 47 -25 46 C-24.99363525 45.39003174 -24.98727051 44.78006348 -24.98071289 44.15161133 C-24.97199358 41.37067974 -25.01673721 38.59304684 -25.0625 35.8125 C-25.04606445 34.37293945 -25.04606445 34.37293945 -25.02929688 32.90429688 C-25.06018102 27.7246427 -25.06018102 27.7246427 -27.4074707 23.30078125 C-29.21262008 21.96389145 -30.97064415 20.95877747 -33 20 C-34.00160156 19.51273437 -35.00320312 19.02546875 -36.03515625 18.5234375 C-55.30419761 11.21363342 -76.43498246 8.27046163 -96 16.21875 C-114.43799089 24.68517439 -125.09655906 39.57915266 -132.21875 58.18359375 C-133.28970361 61.43296437 -134.17741824 64.67920696 -135 68 C-135.2990625 69.1446875 -135.598125 70.289375 -135.90625 71.46875 C-141.45501167 96.74644205 -139.89763689 126.40982132 -129 150 C-128.58234375 150.928125 -128.1646875 151.85625 -127.734375 152.8125 C-119.73468723 168.99577642 -105.58881876 179.61670015 -89 186 C-68.75739667 192.51107516 -47.17907153 190.9890525 -28 182 C-20.57485957 178.13135995 -14.56588268 173.07363507 -8.5078125 167.33203125 C-6.09351443 165.08695968 -3.59911361 163.02619072 -1 161 C1.99220268 162.36370299 4.29026529 163.94908083 6.75 166.125 C7.36359375 166.66382813 7.9771875 167.20265625 8.609375 167.7578125 C9.29773437 168.37269531 9.29773437 168.37269531 10 169 C7.79705361 173.77131042 4.55744162 177.17590177 1 181 C0.55221191 181.48710449 0.10442383 181.97420898 -0.35693359 182.47607422 C-8.38679712 191.13656929 -16.81413794 198.02022675 -27 204 C-28.12019531 204.65871094 -29.24039063 205.31742188 -30.39453125 205.99609375 C-53.09570023 218.28485228 -81.26953908 220.40069423 -105.95825195 213.42700195 C-118.19824794 209.74314808 -129.27126859 204.40709243 -139 196 C-139.72445312 195.43023437 -140.44890625 194.86046875 -141.1953125 194.2734375 C-162.14108303 177.12271947 -170.99417974 149.33237157 -173.77734375 123.38720703 C-176.0200866 99.34165925 -170.49728259 75.53590487 -160 54 C-159.52820312 53.01644531 -159.05640625 52.03289062 -158.5703125 51.01953125 C-144.63148974 23.73251381 -119.19142607 4.33969985 -90.5625 -5.375 C-60.2648739 -13.76748093 -29.41358348 -10.0992842 0 0 Z " fill="#008752" transform="translate(2701,315)"/>
<path d="M0 0 C0.495 0.495 0.495 0.495 1 1 C1.33 -2.63 1.66 -6.26 2 -10 C8.93 -10 15.86 -10 23 -10 C23.06965615 5.04762279 23.1230905 20.09522097 23.15543652 35.14297104 C23.17085924 42.13101464 23.19185999 49.11895579 23.22631836 56.10693359 C23.25958598 62.85669163 23.27687747 69.60634339 23.28463173 76.35617828 C23.29015448 78.92524129 23.30093888 81.4942988 23.31719017 84.06331635 C23.33911772 87.67482345 23.34196048 91.28589748 23.34057617 94.89746094 C23.351362 95.94835403 23.36214783 96.99924713 23.3732605 98.08198547 C23.32305194 110.26831969 20.77954222 120.54250356 12.4765625 129.67578125 C0.19090925 141.27223931 -18.36961636 145.11322104 -34.72265625 145.203125 C-35.95646278 145.21167511 -35.95646278 145.21167511 -37.2151947 145.22039795 C-38.95066055 145.22980076 -40.68614386 145.23636304 -42.42163086 145.24023438 C-45.03076772 145.24988266 -47.63909622 145.28092718 -50.24804688 145.3125 C-66.26722541 145.41455668 -85.90473173 143.94020073 -98 132 C-104.95698668 123.41092403 -106.88715773 116.12842273 -108 105 C-100.41 104.67 -92.82 104.34 -85 104 C-84.01 107.3 -83.02 110.6 -82 114 C-75.96641654 121.92985255 -66.48998755 124.11451814 -57.125 125.625 C-39.94606874 127.26250645 -20.1465486 127.28925247 -5.9375 116.125 C0.90506451 109.64870415 1.13639331 100.53794545 1.5625 91.6875 C1.62727539 90.43356445 1.62727539 90.43356445 1.69335938 89.15429688 C1.79885307 87.10303065 1.89987315 85.0515352 2 83 C1.18917969 83.59167969 0.37835937 84.18335938 -0.45703125 84.79296875 C-19.76766957 98.67313251 -39.86063575 102.61402961 -63.49951172 99.69091797 C-79.22655442 97.01448362 -93.6312857 89.37092885 -103.375 76.625 C-112.62434604 63.04934694 -114.2178107 48.0103269 -112 32 C-108.61961354 17.05974276 -100.30182092 5.45522183 -87.60546875 -2.8828125 C-61.50982606 -18.90782234 -25.45899289 -14.65820803 0 0 Z M-81 20 C-88.65982228 30.68483293 -90.6754038 41.64295832 -88.5703125 54.65625 C-85.99539133 63.68436866 -79.50848636 70.46524944 -71.79296875 75.49609375 C-57.59104633 83.14328275 -41.05769691 83.51866857 -25.80078125 79.06640625 C-15.04946424 75.08800597 -6.12277342 67.34938684 -1 57 C2.21364882 47.59176605 2.81967848 36.47234929 -1.56640625 27.3359375 C-8.26669746 16.41829678 -18.0519972 10.0442134 -30.25 6.5625 C-47.6711539 3.62635047 -68.64715918 6.10682939 -81 20 Z " fill="#008752" transform="translate(1905,770)"/>
<path d="M0 0 C8.25 0 16.5 0 25 0 C33.94424362 17.21480222 42.80817132 34.46959782 51.625 51.75 C52.13728149 52.75402863 52.64956299 53.75805725 53.17736816 54.79251099 C54.21936193 56.83478211 55.26135411 58.87705405 56.30334473 60.91932678 C56.81941284 61.93079269 57.33548096 62.94225861 57.8671875 63.984375 C58.64080627 65.5006675 58.64080627 65.5006675 59.43005371 67.04759216 C64.09813171 76.19549696 68.77593978 85.33839724 73.45858765 94.47885132 C74.73953182 96.97956359 76.01983973 99.4806008 77.30004883 101.98168945 C81.29042054 109.77520824 85.28836292 117.56468349 89.30477905 125.34481812 C91.19040833 128.99801885 93.07323691 132.65265981 94.95593262 136.30737305 C95.85441465 138.04935935 96.75437921 139.79058185 97.65588379 141.53100586 C98.89526539 143.92378965 100.12978295 146.31902319 101.36328125 148.71484375 C101.7340126 149.42728745 102.10474396 150.13973114 102.48670959 150.87376404 C105 155.77234846 105 155.77234846 105 158 C96.09 158 87.18 158 78 158 C75.43281699 152.91147654 72.86808902 147.82186786 70.30957031 142.72900391 C69.4379604 140.99585863 68.56491767 139.26343316 67.69042969 137.53173828 C66.43570054 135.0464641 65.18610074 132.55867004 63.9375 130.0703125 C63.54377197 129.29317902 63.15004395 128.51604553 62.74438477 127.71536255 C60 122.22774341 60 122.22774341 60 120 C27.99 120 -4.02 120 -37 120 C-37.66 121.98 -38.32 123.96 -39 126 C-40.11557956 128.46627974 -41.25381546 130.90141089 -42.44140625 133.33203125 C-42.76914536 134.00924728 -43.09688446 134.68646332 -43.43455505 135.38420105 C-44.12283635 136.80442646 -44.81289208 138.22379318 -45.50463867 139.64233398 C-46.56677904 141.8212783 -47.62266292 144.00317233 -48.67773438 146.18554688 C-49.34859401 147.5678852 -50.0198054 148.95005289 -50.69140625 150.33203125 C-51.00807755 150.9861348 -51.32474884 151.64023834 -51.65101624 152.31416321 C-53.8841784 156.8841784 -53.8841784 156.8841784 -55 158 C-56.92667507 158.08748207 -58.85651861 158.10697334 -60.78515625 158.09765625 C-61.95498047 158.09443359 -63.12480469 158.09121094 -64.33007812 158.08789062 C-65.56177734 158.07951172 -66.79347656 158.07113281 -68.0625 158.0625 C-69.91584961 158.05573242 -69.91584961 158.05573242 -71.80664062 158.04882812 C-74.87114117 158.03699608 -77.93554721 158.02051173 -81 158 C-79.45426587 152.79681952 -77.19058517 148.19102839 -74.703125 143.39453125 C-74.27793579 142.56644455 -73.85274658 141.73835785 -73.41467285 140.88517761 C-72.0305657 138.19214353 -70.64037752 135.50230133 -69.25 132.8125 C-68.28644826 130.94092794 -67.32323441 129.0691819 -66.36035156 127.19726562 C-63.57967912 121.7950122 -60.7912902 116.39677366 -58 111 C-57.45907715 109.95389557 -57.45907715 109.95389557 -56.90722656 108.88665771 C-53.76127687 102.80375364 -50.60733536 96.72503169 -47.44921875 90.6484375 C-43.83426225 83.68840752 -40.24258956 76.71647425 -36.65304565 69.74331665 C-35.56794967 67.63558565 -34.4824153 65.52808103 -33.39672852 63.4206543 C-29.18401778 55.24391299 -29.18401778 55.24391299 -24.97753906 47.06396484 C-16.85806279 31.25890323 -8.57607442 15.5639869 0 0 Z M11 24 C10.63132812 24.89332031 10.26265625 25.78664063 9.8828125 26.70703125 C3.50146801 41.74589303 -4.1899339 56.1304356 -11.70425415 70.62245178 C-15.05950437 77.09931212 -18.3615101 83.60133396 -21.625 90.125 C-22.07979736 91.03024414 -22.53459473 91.93548828 -23.00317383 92.86816406 C-23.40689209 93.67737305 -23.81061035 94.48658203 -24.2265625 95.3203125 C-24.74597412 96.36082764 -24.74597412 96.36082764 -25.27587891 97.42236328 C-26.06952477 98.86215925 -26.06952477 98.86215925 -26 100 C-1.25 100 23.5 100 49 100 C41.75848613 84.66865015 41.75848613 84.66865015 34.265625 69.46875 C33.77970886 68.50070435 33.29379272 67.53265869 32.79315186 66.53527832 C31.28079285 63.52249598 29.76576643 60.51106928 28.25 57.5 C26.23196272 53.49078996 24.21674752 49.48017883 22.203125 45.46875 C21.52953949 44.13402649 21.52953949 44.13402649 20.84234619 42.77233887 C17.73618485 36.5838193 14.82498308 30.32161663 12 24 C11.67 24 11.34 24 11 24 Z " fill="#008752" transform="translate(2244,711)"/>
<path d="M0 0 C7.26 0 14.52 0 22 0 C22 52.14 22 104.28 22 158 C14.74 158 7.48 158 0 158 C-0.495 152.06 -0.495 152.06 -1 146 C-3.3203125 147.5778125 -3.3203125 147.5778125 -5.6875 149.1875 C-23.45632075 160.45553267 -46.15169085 163.17405666 -66.67626953 158.921875 C-82.34207082 155.02799505 -95.83760616 147.07738471 -104.9375 133.5625 C-112.97921514 119.96679455 -115.11259093 104.69771776 -112.31640625 89.21484375 C-107.71504473 73.19599598 -97.87287338 61.70994414 -83.51171875 53.59375 C-64.97020249 44.36519562 -41.72210205 42.77327344 -22 49 C-14.48256017 51.67103173 -8.02783521 55.0956471 -1 59 C-0.67 39.53 -0.34 20.06 0 0 Z M-81.3984375 77.875 C-89.11968861 88.11978196 -90.95598192 98.45105429 -90 111 C-87.60133039 121.80086657 -81.93492056 129.40975045 -72.7890625 135.4609375 C-57.82647567 143.71760306 -41.08597159 143.53756826 -25 139 C-13.65649487 135.16773475 -6.40234447 128.57211225 -0.96484375 117.984375 C2.73217143 108.97397521 2.38379667 96.31246674 -0.90625 87.234375 C-5.95887959 76.91257456 -14.51689235 70.33570265 -25.25 66.625 C-44.46879842 60.65158968 -67.03310946 62.62460436 -81.3984375 77.875 Z " fill="#008752" transform="translate(2467,711)"/>
<path d="M0 0 C0.89203125 0.00902344 1.7840625 0.01804687 2.703125 0.02734375 C3.37859375 0.03894531 4.0540625 0.05054688 4.75 0.0625 C4.74861731 1.37110867 4.74861731 1.37110867 4.74720669 2.70615387 C4.72496957 24.08943701 4.70850079 45.47271811 4.69818783 66.85601044 C4.69306599 77.19746826 4.68610331 87.53891828 4.67456055 97.88037109 C4.66448633 106.9105478 4.65811681 115.94071885 4.65591151 124.97090101 C4.65462565 129.73722504 4.65167878 134.50353292 4.64426994 139.26985168 C4.61043716 161.88897004 4.85548687 184.45941402 5.75 207.0625 C6.50409149 207.12888672 7.25818298 207.19527344 8.03512573 207.26367188 C9.02497467 207.35197266 10.01482361 207.44027344 11.03466797 207.53125 C12.50611771 207.66176758 12.50611771 207.66176758 14.0072937 207.79492188 C16.99434476 208.08633825 19.92481096 208.51202741 22.875 209.0625 C23.78507812 209.2275 24.69515625 209.3925 25.6328125 209.5625 C27.75 210.0625 27.75 210.0625 28.75 211.0625 C28.75 214.6925 28.75 218.3225 28.75 222.0625 C1.36 222.0625 -26.03 222.0625 -54.25 222.0625 C-54.25 218.4325 -54.25 214.8025 -54.25 211.0625 C-46.78889526 208.23937929 -39.19707433 206.99796778 -31.25 207.0625 C-30.35307786 188.33356867 -30.09869872 169.63175603 -30.1156745 150.88501883 C-30.11826511 147.10898368 -30.11584291 143.33295056 -30.11428833 139.55691528 C-30.11248791 133.23553012 -30.11481853 126.91415679 -30.11962891 120.59277344 C-30.12509112 113.33188782 -30.12328608 106.07103022 -30.1178025 98.81014526 C-30.11323829 92.50878376 -30.1126362 86.20743059 -30.11524117 79.90606797 C-30.11678284 76.17127977 -30.1170563 72.43650468 -30.11370468 68.70171738 C-30.04554586 47.3608015 -30.04554586 47.3608015 -31.25 26.0625 C-32.04841309 26.00626465 -32.84682617 25.9500293 -33.66943359 25.89208984 C-52.28130672 24.54684664 -52.28130672 24.54684664 -57.25 22.0625 C-57.25 18.4325 -57.25 14.8025 -57.25 11.0625 C-54.6691947 9.77209735 -52.11549192 9.5888251 -49.28125 9.21240234 C-35.20448653 7.33604363 -21.0616102 4.51405456 -7.42041016 0.52786255 C-4.89263374 -0.01412371 -2.58296953 -0.03398644 0 0 Z " fill="#008752" transform="translate(2496.25,304.9375)"/>
<path d="M0 0 C23.64085392 -0.55510292 48.93215908 4.13399857 67.203125 20.12109375 C67.203125 20.78109375 67.203125 21.44109375 67.203125 22.12109375 C64.32422196 23.85924877 61.42293451 25.55595391 58.515625 27.24609375 C57.69900391 27.73980469 56.88238281 28.23351562 56.04101562 28.7421875 C49.91857655 32.26197029 49.91857655 32.26197029 46.42578125 31.57421875 C45.69230469 31.0946875 44.95882812 30.61515625 44.203125 30.12109375 C43.42195313 29.74210938 42.64078125 29.363125 41.8359375 28.97265625 C41.00835938 28.56789063 40.18078125 28.163125 39.328125 27.74609375 C21.20324055 19.46743031 -2.18475803 16.54948728 -21.32421875 22.96875 C-25.95273262 24.82165588 -29.31991848 26.59795576 -31.796875 31.12109375 C-32.63020833 34.12109375 -32.63020833 34.12109375 -31.796875 37.12109375 C-26.47331603 43.85383009 -17.48345012 44.41844014 -9.40142822 45.41708374 C-3.08467951 46.09236358 3.24658106 46.60695663 9.578125 47.12109375 C52.29103874 50.60272217 52.29103874 50.60272217 62.73046875 62.86328125 C66.64411023 68.86350612 67.76214789 73.88297317 67.703125 80.93359375 C67.69740479 81.72677002 67.69168457 82.51994629 67.68579102 83.3371582 C67.48673274 89.88597451 66.18956612 94.80583892 62.203125 100.12109375 C61.74164062 100.75015625 61.28015625 101.37921875 60.8046875 102.02734375 C51.4874773 112.81071393 35.67412721 116.39280496 22.203125 118.12109375 C17.28912373 118.3582421 12.37231072 118.36679185 7.453125 118.37109375 C6.41584259 118.37210587 6.41584259 118.37210587 5.35760498 118.37313843 C-5.92569334 118.35567707 -16.78324112 117.70514065 -27.796875 115.12109375 C-28.50908203 114.96012207 -29.22128906 114.79915039 -29.95507812 114.63330078 C-43.57853161 111.44202826 -57.45218581 105.7739919 -67.796875 96.12109375 C-67.796875 95.46109375 -67.796875 94.80109375 -67.796875 94.12109375 C-65.25575737 91.97201273 -62.39707888 90.24571525 -59.609375 88.43359375 C-58.84044922 87.90958984 -58.07152344 87.38558594 -57.27929688 86.84570312 C-56.52841797 86.35521484 -55.77753906 85.86472656 -55.00390625 85.359375 C-54.3178833 84.90602783 -53.63186035 84.45268066 -52.92504883 83.9855957 C-50.15694144 82.86114139 -48.61991109 83.26983533 -45.796875 84.12109375 C-43.54296875 85.35546875 -43.54296875 85.35546875 -41.234375 86.87109375 C-26.25613542 96.08337384 -11.47015764 98.3680556 5.828125 98.49609375 C7.04298584 98.51003174 8.25784668 98.52396973 9.50952148 98.53833008 C19.73104021 98.48506778 31.07459063 97.96617532 39.203125 91.12109375 C39.80125 90.70859375 40.399375 90.29609375 41.015625 89.87109375 C43.03846396 86.89006791 43.28566765 83.62915647 43.203125 80.12109375 C42.2342732 77.07613094 41.21359643 75.72834616 38.47290039 74.08129883 C31.92169907 70.96604756 25.69306479 70.17433774 18.515625 69.55859375 C16.70457275 69.38154907 16.70457275 69.38154907 14.85693359 69.20092773 C9.63972875 68.69423044 4.41908772 68.22839649 -0.80224609 67.76660156 C-3.46617369 67.53094853 -6.12939986 67.28893262 -8.79223633 67.04125977 C-11.30002946 66.81006494 -13.80897961 66.59095995 -16.3190918 66.38647461 C-29.03556969 65.22020423 -42.73543179 63.00537462 -51.640625 53.0625 C-57.73863711 45.2242533 -57.81202019 36.73765969 -56.796875 27.12109375 C-54.49464812 18.58994462 -48.83901512 13.47004767 -41.69140625 8.72265625 C-29.30294138 1.68617878 -13.91476282 0.60245481 0 0 Z " fill="#008752" transform="translate(2766.796875,754.87890625)"/>
<path d="M0 0 C9.62173948 8.74181897 15.61656009 21.0206114 17.875 33.75 C17.875 37.05 17.875 40.35 17.875 43.75 C-18.755 43.75 -55.385 43.75 -93.125 43.75 C-88.1794506 59.57575808 -85.85435983 66.95283466 -72.125 74.75 C-58.32869254 81.14973222 -43.54886823 82.46975727 -28.875 78.1875 C-18.14352514 74.15778064 -10.96875076 67.48293643 -5.125 57.75 C-2.37491865 58.39548853 0.37506756 59.04137766 3.125 59.6875 C3.90230469 59.86990234 4.67960938 60.05230469 5.48046875 60.24023438 C6.61162109 60.50610352 6.61162109 60.50610352 7.765625 60.77734375 C8.80251465 61.02085571 8.80251465 61.02085571 9.86035156 61.26928711 C11.86899101 61.7485662 13.87256942 62.24546602 15.875 62.75 C14.46578055 72.79291835 5.5179363 81.39957984 -2.22265625 87.3671875 C-20.94363947 99.76221241 -45.41576525 101.84911608 -67.03125 98.06640625 C-83.38489315 94.20131202 -98.09054243 86.69832647 -107.5234375 72.484375 C-116.32729601 57.45339705 -118.24880606 41.19287833 -114.21484375 24.33203125 C-109.52133775 8.90570507 -100.34222108 -2.17114721 -86.16015625 -9.8203125 C-57.98197141 -23.09343432 -24.13532423 -19.69664391 0 0 Z M-85 14.75 C-90.02823137 20.63956072 -90.02823137 20.63956072 -92.125 27.75 C-64.075 27.75 -36.025 27.75 -7.125 27.75 C-10.70541374 17.00875879 -17.00044804 8.87860961 -27.0625 3.4375 C-46.49276436 -5.26875307 -70.63557265 -0.92028438 -85 14.75 Z " fill="#008752" transform="translate(907.125,773.25)"/>
<path d="M0 0 C7.59 0 15.18 0 23 0 C23.33 19.14 23.66 38.28 24 58 C27.3 56.02 30.6 54.04 34 52 C54.65060932 43.17422091 79.12410524 42.10992263 100.375 49.6875 C111.65999115 54.76286229 120.59300524 62.7800197 125.375 74.25 C127.54409448 80.02167749 128.12403355 85.19230659 128.11352539 91.3605957 C128.11367142 92.08309006 128.11381744 92.80558441 128.1139679 93.54997253 C128.11327422 95.92527322 128.10550745 98.30049435 128.09765625 100.67578125 C128.09579013 102.32773292 128.09436714 103.97968515 128.09336853 105.63163757 C128.08955861 109.97007792 128.07974139 114.30848455 128.06866455 118.64691162 C128.0584176 123.07775415 128.05386388 127.50860215 128.04882812 131.93945312 C128.03811771 140.62631925 128.0205333 149.31315154 128 158 C120.74 158 113.48 158 106 158 C105.98541748 155.99244629 105.97083496 153.98489258 105.95581055 151.91650391 C105.90525931 145.25079291 105.83862932 138.58531051 105.76428509 131.9198246 C105.71973782 127.88228005 105.68044828 123.84483277 105.65356445 119.80712891 C105.62737401 115.90359786 105.58686334 112.00044433 105.53681374 108.0971489 C105.5202506 106.61502182 105.5086711 105.13282961 105.50238609 103.65062332 C105.48783546 87.92962228 105.48783546 87.92962228 97.98828125 74.59765625 C87.3547258 66.05320796 74.26952261 63.82403574 61 65 C46.3630687 67.35121366 35.64156588 72.88815551 25.40544128 83.68133545 C23.46138726 86.88859086 23.60030463 89.32515085 23.56762695 93.06347656 C23.5574353 93.76631775 23.54724365 94.46915894 23.53674316 95.19329834 C23.50662464 97.5091551 23.49734934 99.82459816 23.48828125 102.140625 C23.47143365 103.74917982 23.45328329 105.35772149 23.43388367 106.96624756 C23.38638608 111.19449756 23.3565753 115.42269421 23.33044434 119.65112305 C23.30063751 123.96804339 23.25410762 128.2847799 23.20898438 132.6015625 C23.12295387 141.06763332 23.05715363 149.53368494 23 158 C15.41 158 7.82 158 0 158 C0 105.86 0 53.72 0 0 Z " fill="#008752" transform="translate(1103,711)"/>
<path d="M0 0 C10.16075513 8.73094827 17.75054158 20.39449746 19.296875 33.9296875 C20.22728834 50.33434368 18.19275118 65.14451826 7.171875 78.0546875 C-8.44335059 94.46739578 -28.65657428 100.28886781 -50.765625 100.92578125 C-72.88491864 101.16639857 -93.89592095 96.11605034 -110.2578125 80.5 C-121.03843604 69.16829027 -124.26203244 55.571336 -123.98046875 40.23828125 C-123.49592363 29.53248591 -120.0725278 19.54623942 -113.703125 10.9296875 C-113.15140625 10.17300781 -112.5996875 9.41632812 -112.03125 8.63671875 C-101.03748718 -5.01152099 -83.00520208 -12.56235127 -65.98486328 -14.84326172 C-43.17119969 -17.11339944 -18.69813449 -14.32082555 0 0 Z M-92.31640625 18.1328125 C-92.77402344 18.72578125 -93.23164063 19.31875 -93.703125 19.9296875 C-94.17105469 20.52265625 -94.63898437 21.115625 -95.12109375 21.7265625 C-100.73345805 29.69249892 -102.57769853 39.32943031 -101.3984375 48.9140625 C-99.26912598 58.14905404 -94.32954372 66.27687874 -86.703125 71.9296875 C-71.54085821 81.30685001 -54.55614876 84.32116482 -37.015625 80.8046875 C-24.46373265 77.46674554 -14.09698278 71.41817797 -7.0078125 60.26171875 C-2.15524897 50.65364295 -1.64914303 41.02174657 -4.63671875 30.74609375 C-8.45309238 20.66695315 -16.19681186 12.93032924 -25.765625 8.1171875 C-46.51954169 -0.51084528 -76.46249662 0.0825174 -92.31640625 18.1328125 Z " fill="#008752" transform="translate(2975.703125,772.0703125)"/>
<path d="M0 0 C10.66714831 8.63445394 17.23486704 21.45050321 19 35 C19.89209105 51.09195015 17.64414246 65.50971883 6.875 78.125 C-8.74022559 94.53770828 -28.95344928 100.35918031 -51.0625 100.99609375 C-73.04287269 101.23519986 -94.22937414 96.25449708 -110.48828125 80.69140625 C-120.65368684 69.79877102 -124.63747158 56.9004923 -124.40258789 42.18823242 C-123.76921717 26.42214586 -117.56421109 12.77829383 -106 2 C-77.06523523 -21.97184395 -30.21520279 -20.80817409 0 0 Z M-93.25 19.375 C-99.55169118 27.18361733 -102.35243073 35.80085668 -102 45.8125 C-101.04148517 54.73581664 -96.97667154 63.24424598 -90 69 C-88.700625 70.2375 -88.700625 70.2375 -87.375 71.5 C-75.45390124 81.12159747 -58.77401584 83.1340396 -44 82 C-29.65141265 80.02994224 -18.24455583 74.24053948 -9 63 C-3.62333315 55.2564309 -2.31029258 45.93618862 -3.4765625 36.72265625 C-5.4927012 26.23572585 -10.92684042 18.70115011 -19.3515625 12.1796875 C-41.5799553 -2.22894497 -74.97959128 -0.62246228 -93.25 19.375 Z " fill="#008752" transform="translate(288,772)"/>
<path d="M0 0 C10.02647576 9.35804404 16.13914463 22.24621182 16.76953125 35.96875 C17.19701152 53.12738642 13.28483521 66.75469157 1.46875 79.625 C-14.56564789 94.76558855 -36.93000461 99.35395905 -58.32958984 98.91357422 C-78.99199014 98.14055472 -99.46434602 92.65839456 -114.21875 77.3125 C-124.48400275 64.77157676 -127.47092258 50.8106206 -126.46875 34.9375 C-124.66381443 20.66210051 -117.86195046 7.59573016 -106.55859375 -1.37109375 C-76.9746695 -23.30741182 -28.73580744 -24.00713027 0 0 Z M-95.01171875 15.9453125 C-102.06582723 25.59034019 -105.6388576 35.64335396 -103.90625 47.6875 C-101.79239553 56.84753605 -96.89778822 64.19315706 -89.46875 69.9375 C-74.53363085 79.21847691 -57.516589 82.45594887 -40.22729492 78.80493164 C-32.8631904 77.05397104 -26.62470177 74.38685128 -20.46875 69.9375 C-19.56125 69.339375 -18.65375 68.74125 -17.71875 68.125 C-9.84174537 60.46680106 -5.99545351 51.14038219 -5.41015625 40.28125 C-5.58877762 30.08792358 -9.63674799 22.1462663 -16.47265625 14.77734375 C-27.1004669 4.60582551 -41.11177282 1.11524663 -55.53125 0.5625 C-69.36312237 1.14172414 -85.49689775 5.105643 -95.01171875 15.9453125 Z " fill="#008752" transform="translate(1542.46875,774.0625)"/>
<path d="M0 0 C1.12341797 0.93585937 1.12341797 0.93585937 2.26953125 1.890625 C3.04941406 2.53515625 3.82929687 3.1796875 4.6328125 3.84375 C13.4573261 11.85255226 19.44836759 23.44493891 20.48706055 35.39282227 C21.26049817 52.83104989 18.88149297 67.87908707 6.8515625 81.3984375 C-9.89371647 97.19275001 -32.33575452 102.29922065 -54.73046875 101.890625 C-74.29090473 101.04701561 -94.4854094 96.13568435 -108.73046875 81.890625 C-118.98314723 69.57126487 -123.9022921 56.08535724 -122.5625 39.85595703 C-120.63434265 23.2255999 -113.28462803 10.79291357 -100.41796875 0.140625 C-73.26184111 -19.79262931 -27.1605296 -20.71947532 0 0 Z M-91.73046875 19.890625 C-98.82264516 29.70569056 -100.80461316 38.84678084 -99.73046875 50.890625 C-97.11010886 61.74427478 -90.05130365 70.02936379 -80.73046875 75.890625 C-64.94805967 84.04055756 -47.20551777 85.31375621 -30.2734375 80.2109375 C-18.82783787 75.9456534 -9.50613212 69.37640432 -4.29296875 58.078125 C-0.66944573 49.1574338 -0.48688995 39.46834001 -3.62890625 30.3359375 C-8.55427286 19.40232227 -16.77852487 12.38373018 -27.73046875 7.890625 C-33.64055819 5.77583261 -39.46103602 4.28849285 -45.73046875 3.890625 C-46.44203125 3.83777344 -47.15359375 3.78492188 -47.88671875 3.73046875 C-63.74601727 3.12252897 -80.94533756 7.6610566 -91.73046875 19.890625 Z " fill="#008752" transform="translate(1753.73046875,771.109375)"/>
<path d="M0 0 C25.49311415 -2.19581012 25.49311415 -2.19581012 32.29101562 1.11621094 C35.78242766 4.08209902 37.78162222 7.91048661 39.84521484 11.94287109 C41.89300345 15.59079219 44.670539 18.63945985 47.375 21.8125 C52.41734395 27.94916203 57.25231231 34.22658212 62.04321289 40.56030273 C66.00793907 45.77315028 70.12281964 50.84177113 74.3125 55.875 C89 73.545993 89 73.545993 89 77 C89.66 77 90.32 77 91 77 C91.19722656 76.33871094 91.39445312 75.67742187 91.59765625 74.99609375 C93.56801938 70.78643213 96.43824269 67.58606132 99.4375 64.0625 C100.71743368 62.53493232 101.99606448 61.00627209 103.2734375 59.4765625 C103.90733398 58.71891602 104.54123047 57.96126953 105.19433594 57.18066406 C107.70866295 54.14416206 110.14335818 51.05001779 112.5625 47.9375 C116.48099046 42.90750422 120.46794567 37.93942912 124.5 33 C129.46635133 26.91528582 134.34935973 20.77348435 139.171875 14.57421875 C139.60894775 14.04143311 140.04602051 13.50864746 140.49633789 12.9597168 C142.12139954 10.90522578 142.12139954 10.90522578 143.78295898 8.15942383 C146.87793507 3.62797634 149.05958591 0.48396431 154.53466797 -0.8815918 C158.60160319 -1.08211747 162.50797297 -0.96680867 166.5625 -0.6875 C167.9666035 -0.63221778 169.37091796 -0.58204596 170.77539062 -0.53710938 C174.18904573 -0.40807087 177.59175343 -0.22785379 181 0 C179.18413436 3.85981351 176.72018557 6.86253001 173.9375 10.0625 C172.931578 11.23506522 171.92637879 12.40825086 170.921875 13.58203125 C170.42365234 14.16291504 169.92542969 14.74379883 169.41210938 15.34228516 C167.47233287 17.61944326 165.57686244 19.93091415 163.6875 22.25 C155.13054141 32.75102611 146.54242497 43.22315515 137.76220703 53.53857422 C134.45284442 57.43692239 131.25637352 61.41354057 128.08203125 65.421875 C125.66915993 68.40967063 123.1820662 71.33058549 120.6875 74.25 C116.15468429 79.55805057 111.80268071 84.98901972 107.52807617 90.50683594 C105.76411015 92.78008608 104.0370692 94.9629308 102 97 C101.66778599 99.66966114 101.66778599 99.66966114 101.68115234 102.82666016 C101.66128265 104.04777496 101.64141296 105.26888977 101.62094116 106.52700806 C101.60906392 107.86435769 101.59740111 109.20170925 101.5859375 110.5390625 C101.56723251 111.90385112 101.5476596 113.26862811 101.5272522 114.63339233 C101.47585395 118.22706243 101.43626973 121.82077005 101.39910889 125.41461182 C101.35911721 129.0811904 101.3080029 132.74761185 101.2578125 136.4140625 C101.16096215 143.60927556 101.0776147 150.80454903 101 158 C93.41 158 85.82 158 78 158 C78.02731201 156.18991455 78.05462402 154.3798291 78.08276367 152.51489258 C78.16063057 146.48358835 78.18671403 140.45384906 78.17878246 134.42216969 C78.17582343 130.77043958 78.19259907 127.12118205 78.25708008 123.4699707 C79.45981199 104.39783942 79.45981199 104.39783942 71.765625 87.9453125 C69.90995269 86.18214974 67.9994997 84.60816574 66 83 C64.2590332 80.96459961 64.2590332 80.96459961 62.94140625 79.16015625 C58.44177949 73.30103634 53.84320854 67.57896472 49 62 C44.52812239 56.84877697 40.26133074 51.5779397 36.08081055 46.18847656 C32.47743397 41.56066788 28.72683933 37.07694574 24.91821289 32.61743164 C21.52107225 28.63468227 18.22842352 24.58209592 14.9765625 20.48046875 C12.04727872 16.80439128 9.06129565 13.1753546 6.078125 9.54296875 C5.39234375 8.70378906 4.7065625 7.86460937 4 7 C3.25234375 6.10925781 2.5046875 5.21851563 1.734375 4.30078125 C0 2 0 2 0 0 Z " fill="#008752" transform="translate(2,711)"/>
<path d="M0 0 C8.25 0 16.5 0 25 0 C31.51482591 12.97369626 37.93258621 25.99386658 44.32739258 39.02709961 C46.06118077 42.55981197 47.79716287 46.09144078 49.53320312 49.62304688 C66 83.15224504 66 83.15224504 66 86 C66.66 86 67.32 86 68 86 C68.26101501 85.1533075 68.52203003 84.30661499 68.79095459 83.43426514 C70.06100829 79.82670738 71.62923225 76.46039037 73.34472656 73.05175781 C73.84277046 72.05041306 73.84277046 72.05041306 74.35087585 71.02883911 C75.44345889 68.83491285 76.54183001 66.64394588 77.640625 64.453125 C78.40833494 62.91635607 79.17580746 61.37946851 79.9430542 59.84246826 C81.55107172 56.62348901 83.16196412 53.40596943 84.77490234 50.18945312 C86.82894595 46.09271366 88.87583435 41.99244926 90.92053604 37.8910408 C92.50482846 34.71517886 94.09297642 31.54125686 95.68224335 28.36788177 C96.43765021 26.85839083 97.19189435 25.34831736 97.94489288 23.8376236 C100.25631046 19.20354763 102.60619024 14.59202243 105 10 C105.53988556 8.94894073 106.07977112 7.89788147 106.63601685 6.81497192 C110.19196874 0.31804176 110.19196874 0.31804176 113.88427734 -1.13525391 C114.8583252 -1.08288574 115.83237305 -1.03051758 116.8359375 -0.9765625 C118.43115234 -0.92822266 118.43115234 -0.92822266 120.05859375 -0.87890625 C121.70021484 -0.75322266 121.70021484 -0.75322266 123.375 -0.625 C124.49261719 -0.57988281 125.61023437 -0.53476562 126.76171875 -0.48828125 C129.5133319 -0.37069094 132.25388464 -0.20673789 135 0 C134.40009815 3.8186472 133.27686597 6.75372306 131.47265625 10.1640625 C130.93729248 11.18516113 130.40192871 12.20625977 129.8503418 13.25830078 C129.260354 14.36931152 128.67036621 15.48032227 128.0625 16.625 C127.11048914 18.43591307 126.16090494 20.24808662 125.21131897 22.06027222 C124.53605061 23.34851544 123.86003779 24.63636867 123.18333435 25.92385864 C119.51835179 32.9002174 115.91721361 39.90904522 112.31918335 46.92010498 C110.41108879 50.6377069 108.50024856 54.35389741 106.58984375 58.0703125 C106.20905167 58.81125153 105.82825958 59.55219055 105.43592834 60.31558228 C102.81419473 65.41685897 100.19105521 70.51741016 97.56640625 75.6171875 C97.2067276 76.31610107 96.84704895 77.01501465 96.47647095 77.73510742 C94.69768989 81.19070982 92.917268 84.6454525 91.13378906 88.09863281 C90.43941434 89.44333935 89.74507807 90.78806574 89.05078125 92.1328125 C88.71186859 92.78918701 88.37295593 93.44556152 88.02377319 94.12182617 C86.0213285 98.00478741 84.03442908 101.89520973 82.06130981 105.79315186 C81.11978182 107.65143791 80.17434195 109.50767799 79.22753906 111.36328125 C78.08259862 113.60943828 76.94454568 115.85912795 75.81542969 118.11328125 C69.37098854 130.70540646 62.10757684 142.18911319 48.125 146.9375 C35.47029989 149.84538854 20.59759976 148.74383333 8 146 C7 145 7 145 6.88647461 143.05053711 C6.89432983 141.8015564 6.89432983 141.8015564 6.90234375 140.52734375 C6.90556641 139.62822266 6.90878906 138.72910156 6.91210938 137.80273438 C6.92048828 136.85720703 6.92886719 135.91167969 6.9375 134.9375 C6.94201172 133.98810547 6.94652344 133.03871094 6.95117188 132.06054688 C6.9629989 129.70696935 6.97947975 127.35351523 7 125 C7.82238159 125.14417358 7.82238159 125.14417358 8.66137695 125.29125977 C25.83944861 128.94240915 25.83944861 128.94240915 42.3125 124.875 C47.68313322 121.05931397 52.0678775 116.38543834 54 110 C53.46906947 107.62390357 53.46906947 107.62390357 52.19046021 105.31208801 C51.73884521 104.39937637 51.28723022 103.48666473 50.82192993 102.54629517 C50.3097995 101.55753387 49.79766907 100.56877258 49.27001953 99.55004883 C48.74361877 98.49914566 48.21721802 97.44824249 47.67486572 96.36549377 C46.22886693 93.48714338 44.76726015 90.61739297 43.29861689 87.75055146 C41.76646754 84.74997529 40.2553389 81.73885606 38.74215698 78.72868347 C35.8732545 73.02917635 32.9868048 67.33875787 30.09337795 61.65166825 C25.84389965 53.29753066 21.6185313 44.93120673 17.39600945 36.56341839 C17.08668924 35.95045825 16.77736904 35.33749812 16.4586755 34.70596343 C15.84210729 33.48412891 15.22558838 32.2622695 14.60912025 31.04038447 C12.50821938 26.87806038 10.39776993 22.7206864 8.28445435 18.56465149 C7.18584283 16.39704881 6.08727862 14.22942216 4.98876953 12.06176758 C4.48068756 11.06693359 3.97260559 10.07209961 3.4491272 9.04711914 C2.99187256 8.14286697 2.53461792 7.23861481 2.06350708 6.30696106 C1.66269487 5.5188696 1.26188267 4.73077814 0.84892464 3.91880512 C0 2 0 2 0 0 Z " fill="#008752" transform="translate(1945,759)"/>
<path d="M0 0 C50.16 0 100.32 0 152 0 C152 6.6 152 13.2 152 20 C130.88 20 109.76 20 88 20 C88 65.54 88 111.08 88 158 C80.08 158 72.16 158 64 158 C64 112.46 64 66.92 64 20 C42.88 20 21.76 20 0 20 C0 13.4 0 6.8 0 0 Z " fill="#008752" transform="translate(654,711)"/>
<path d="M0 0 C7.26 0 14.52 0 22 0 C22.01981934 1.88114502 22.03963867 3.76229004 22.06005859 5.70043945 C22.12816235 11.95498795 22.20496062 18.20938385 22.28752708 24.46375751 C22.33721591 28.25127399 22.38354533 32.03876621 22.421875 35.82641602 C22.45907797 39.4899802 22.50552622 43.15332667 22.55806351 46.81670189 C22.57642348 48.20590537 22.59159725 49.59515518 22.60334396 50.98443031 C22.39619064 68.18742927 22.39619064 68.18742927 30 83 C42.24979399 92.72907826 57.01182073 93.24193629 72 92 C82.43677036 90.57323714 92.86319801 85.92036779 100 78 C103.79951473 72.3007279 105.36868483 67.80324927 105.43237305 60.96313477 C105.4425647 60.29886978 105.45275635 59.6346048 105.46325684 58.95021057 C105.49316488 56.78052087 105.502618 54.61127419 105.51171875 52.44140625 C105.52858203 50.92681944 105.54673447 49.41224649 105.56611633 47.89768982 C105.6134439 43.93088104 105.64336427 39.96412847 105.66955566 35.99713135 C105.69944873 31.9413341 105.74594881 27.88573013 105.79101562 23.83007812 C105.87685245 15.8867981 105.94274757 7.94353753 106 0 C113.26 0 120.52 0 128 0 C128 35.97 128 71.94 128 109 C121.07 109 114.14 109 107 109 C107 105.04 107 101.08 107 97 C106.21238281 97.59167969 105.42476563 98.18335938 104.61328125 98.79296875 C86.52331244 112.05053194 66.55587494 115.31929299 44.5078125 112.5 C29.72794526 110.20156635 17.15641594 104.75084138 7.53515625 93.11328125 C-1.07008088 81.26739503 -0.29973677 65.78211812 -0.1953125 51.7578125 C-0.19157005 50.25324697 -0.18872893 48.74867897 -0.18673706 47.24411011 C-0.17919738 43.33482822 -0.15963536 39.42570127 -0.1373291 35.51647949 C-0.11665904 31.50710138 -0.10769069 27.49769759 -0.09765625 23.48828125 C-0.07637752 15.65877624 -0.04127771 7.8294298 0 0 Z " fill="#008752" transform="translate(331,760)"/>
<path d="M0 0 C0.89332031 0.78310547 0.89332031 0.78310547 1.8046875 1.58203125 C2.42085937 2.09378906 3.03703125 2.60554687 3.671875 3.1328125 C12.1257051 10.73400309 14.51089973 20.66258228 15.8046875 31.58203125 C16.05819409 37.00641691 16.03951136 42.41961922 16 47.84765625 C15.99625993 49.37750054 15.99341767 50.90734726 15.99142456 52.43719482 C15.9838662 56.42212793 15.96428688 60.40691026 15.9420166 64.39178467 C15.92138803 68.47471071 15.91238684 72.55766163 15.90234375 76.640625 C15.88103182 84.62116993 15.84591547 92.60156434 15.8046875 100.58203125 C8.5446875 100.58203125 1.2846875 100.58203125 -6.1953125 100.58203125 C-6.21513184 98.69564941 -6.23495117 96.80926758 -6.25537109 94.86572266 C-6.32342898 88.59919258 -6.40022449 82.33281599 -6.48283958 76.06646156 C-6.53256357 72.27106938 -6.57889344 68.47570186 -6.6171875 64.68017578 C-6.65434509 61.01013151 -6.70078273 57.34030648 -6.75337601 53.67045212 C-6.77175957 52.27763124 -6.78692517 50.88476367 -6.79865646 49.49187088 C-6.92890376 32.21003608 -6.92890376 32.21003608 -15.1953125 17.58203125 C-23.96246284 9.9044885 -34.14360151 8.02459737 -45.5078125 8.14453125 C-46.51674561 8.15210449 -47.52567871 8.15967773 -48.56518555 8.16748047 C-60.16099832 8.42294824 -71.00319013 11.08845323 -80.1953125 18.58203125 C-88.80693056 28.25185662 -89.6509501 38.99321427 -89.70703125 51.4609375 C-89.72390709 52.88298564 -89.74206117 54.30501913 -89.76142883 55.72703552 C-89.80862041 59.4406374 -89.83862788 63.15417985 -89.86486816 66.86798096 C-89.89483086 70.6692681 -89.94130652 74.47035104 -89.98632812 78.27148438 C-90.07200968 85.70824868 -90.13798018 93.14498446 -90.1953125 100.58203125 C-97.4553125 100.58203125 -104.7153125 100.58203125 -112.1953125 100.58203125 C-112.1953125 64.61203125 -112.1953125 28.64203125 -112.1953125 -8.41796875 C-104.9353125 -8.41796875 -97.6753125 -8.41796875 -90.1953125 -8.41796875 C-89.8653125 -5.11796875 -89.5353125 -1.81796875 -89.1953125 1.58203125 C-88.57527344 1.13472656 -87.95523437 0.68742188 -87.31640625 0.2265625 C-63.56542967 -15.98771408 -23.36069364 -19.1441369 0 0 Z " fill="#008752" transform="translate(1376.1953125,768.41796875)"/>
<path d="M0 0 C6.18831106 5.41361936 12.32396592 11.40966463 16.12109375 18.79296875 C16.12109375 19.45296875 16.12109375 20.11296875 16.12109375 20.79296875 C13.39428264 21.6347627 10.66507932 22.46659944 7.93359375 23.29296875 C7.16466797 23.53144531 6.39574219 23.76992188 5.60351562 24.015625 C-2.47772981 26.44346698 -2.47772981 26.44346698 -5.87890625 25.79296875 C-7.51171875 24.0703125 -7.51171875 24.0703125 -9.00390625 21.73046875 C-16.85495548 10.99225949 -28.63150439 7.31495884 -41.3203125 5.2265625 C-55.4843709 3.69574845 -70.99267069 6.55218327 -82.62890625 15.04296875 C-91.04112054 22.04572915 -96.10810223 30.43886918 -97.26171875 41.4453125 C-97.59535237 52.3996165 -95.87609207 60.6344796 -88.75390625 69.10546875 C-79.43696907 78.72787928 -67.69203226 83.56211225 -54.375 83.99609375 C-38.50727816 84.24502989 -22.83406008 83.01563634 -10.54296875 71.62890625 C-8.32494414 69.1392868 -6.37223553 66.7796273 -4.87890625 63.79296875 C2.59944852 65.02248549 9.84274145 66.68126112 17.12109375 68.79296875 C12.48556701 81.37200376 1.94897102 90.16767865 -9.87890625 95.79296875 C-15.10070141 97.86384135 -20.44739179 99.37989182 -25.87890625 100.79296875 C-27.2865625 101.16421875 -27.2865625 101.16421875 -28.72265625 101.54296875 C-48.14697751 105.65635443 -71.69796512 103.96040692 -89.87890625 95.79296875 C-90.77867187 95.3959375 -91.6784375 94.99890625 -92.60546875 94.58984375 C-105.58831439 88.22642081 -113.79605721 78.1589792 -118.87890625 64.79296875 C-123.67168581 49.34956796 -123.64315222 32.71975523 -116.25390625 18.10546875 C-110.37525451 8.18253572 -102.96814428 1.28850343 -92.87890625 -4.20703125 C-92.0384375 -4.66851563 -91.19796875 -5.13 -90.33203125 -5.60546875 C-64.11460589 -18.71418143 -23.76149375 -18.21607051 0 0 Z " fill="#008752" transform="translate(1064.87890625,770.20703125)"/>
<path d="M0 0 C8.25 0 16.5 0 25 0 C38.86 27.72 52.72 55.44 67 84 C75.02280855 68.78197919 75.02280855 68.78197919 82.91015625 53.49609375 C83.40736679 52.52245377 83.90457733 51.54881378 84.41685486 50.54566956 C85.44977773 48.52235467 86.48213483 46.49875084 87.51391602 44.47485352 C89.06313541 41.43625372 90.61443789 38.39872427 92.16601562 35.36132812 C98.16848838 23.6025408 104.11293659 11.81700866 110 0 C118.25 0 126.5 0 135 0 C133.64751119 4.05746643 132.41349542 7.42152199 130.53125 11.16796875 C129.79648438 12.63459961 129.79648438 12.63459961 129.046875 14.13085938 C128.28117187 15.64389648 128.28117187 15.64389648 127.5 17.1875 C127.02046875 18.14591797 126.5409375 19.10433594 126.046875 20.09179688 C122.87752944 26.39373011 119.61600737 32.64242448 116.3203125 38.87890625 C110.04874609 50.75072089 103.97029222 62.72010061 97.88085938 74.68603516 C92.02729671 86.18410467 86.11624309 97.63918741 80 109 C71.75 109 63.5 109 55 109 C43.37763493 88.24718372 32.84871258 66.96607205 22.24285889 45.68133545 C20.2308884 41.64645404 18.21435424 37.6138611 16.19776535 33.58128643 C14.25573886 29.69696279 12.31578999 25.81160478 10.37656403 21.92588234 C9.45041094 20.07039258 8.52377213 18.21514519 7.59664154 16.36014366 C6.31468416 13.79407646 5.03535972 11.22671485 3.75683594 8.65893555 C3.37360672 7.8929303 2.9903775 7.12692505 2.59553528 6.33770752 C0 1.11450057 0 1.11450057 0 0 Z " fill="#008752" transform="translate(2506,760)"/>
<path d="M0 0 C1.44439453 -0.00193359 1.44439453 -0.00193359 2.91796875 -0.00390625 C3.91183594 -0.00003906 4.90570312 0.00382813 5.9296875 0.0078125 C7.43208984 0.00201172 7.43208984 0.00201172 8.96484375 -0.00390625 C9.92519531 -0.00261719 10.88554688 -0.00132812 11.875 0 C12.74914551 0.00112793 13.62329102 0.00225586 14.52392578 0.00341797 C16.8046875 0.1328125 16.8046875 0.1328125 19.8046875 1.1328125 C19.8046875 8.3928125 19.8046875 15.6528125 19.8046875 23.1328125 C17.8453125 22.8028125 15.8859375 22.4728125 13.8671875 22.1328125 C0.79430455 20.15635072 -12.89330399 20.38342152 -24.1953125 28.1328125 C-29.75295274 33.13365761 -32.84678539 37.90377496 -33.4737854 45.5118103 C-33.48710907 46.74202911 -33.50043274 47.97224792 -33.51416016 49.23974609 C-33.52420578 49.92337219 -33.5342514 50.60699829 -33.54460144 51.31134033 C-33.57527659 53.55130235 -33.59242435 55.79114572 -33.609375 58.03125 C-33.62809931 59.59210215 -33.64767366 61.15294431 -33.6680603 62.71377563 C-33.71925424 66.80717057 -33.75894782 70.90059827 -33.79620361 74.99414062 C-33.83632343 79.17716494 -33.88737927 83.36005443 -33.9375 87.54296875 C-34.0341084 95.73949775 -34.11754947 103.93608302 -34.1953125 112.1328125 C-41.7853125 112.1328125 -49.3753125 112.1328125 -57.1953125 112.1328125 C-57.1953125 76.1628125 -57.1953125 40.1928125 -57.1953125 3.1328125 C-49.9353125 3.1328125 -42.6753125 3.1328125 -35.1953125 3.1328125 C-34.8653125 6.4328125 -34.5353125 9.7328125 -34.1953125 13.1328125 C-33.35613281 12.46185547 -33.35613281 12.46185547 -32.5 11.77734375 C-23.12751432 4.71030873 -11.86418498 0.01526922 0 0 Z " fill="#008752" transform="translate(549.1953125,756.8671875)"/>
<path d="M0 0 C1.44439453 -0.00193359 1.44439453 -0.00193359 2.91796875 -0.00390625 C3.91183594 -0.00003906 4.90570312 0.00382813 5.9296875 0.0078125 C7.43208984 0.00201172 7.43208984 0.00201172 8.96484375 -0.00390625 C9.92519531 -0.00261719 10.88554687 -0.00132812 11.875 0 C12.74914551 0.00112793 13.62329102 0.00225586 14.52392578 0.00341797 C16.8046875 0.1328125 16.8046875 0.1328125 19.8046875 1.1328125 C19.8046875 8.3928125 19.8046875 15.6528125 19.8046875 23.1328125 C17.8453125 22.8028125 15.8859375 22.4728125 13.8671875 22.1328125 C1.32112096 20.25360641 -13.44194415 20.3372471 -24.1953125 28.1328125 C-30.22092806 33.41384399 -32.8074159 39.64618835 -33.49179077 47.56204224 C-33.63746134 51.67258239 -33.68965631 55.77412124 -33.70703125 59.88671875 C-33.72390431 61.398447 -33.74205803 62.91016144 -33.76142883 64.42185974 C-33.80865037 68.37219934 -33.83863877 72.32248295 -33.86486816 76.27301025 C-33.89481541 80.31558281 -33.94129653 84.35796294 -33.98632812 88.40039062 C-34.07204394 96.31111861 -34.137998 104.22182771 -34.1953125 112.1328125 C-41.4553125 112.1328125 -48.7153125 112.1328125 -56.1953125 112.1328125 C-56.1953125 76.1628125 -56.1953125 40.1928125 -56.1953125 3.1328125 C-48.9353125 3.1328125 -41.6753125 3.1328125 -34.1953125 3.1328125 C-33.8653125 6.1028125 -33.5353125 9.0728125 -33.1953125 12.1328125 C-32.54046875 11.67390625 -31.885625 11.215 -31.2109375 10.7421875 C-21.76605745 4.39223989 -11.5310564 0.01484048 0 0 Z " fill="#008752" transform="translate(3077.1953125,756.8671875)"/>
<path d="M0 0 C7.26 0 14.52 0 22 0 C22 52.14 22 104.28 22 158 C14.74 158 7.48 158 0 158 C0 105.86 0 53.72 0 0 Z " fill="#008752" transform="translate(1584,711)"/>
<path d="M0 0 C7.26 0 14.52 0 22 0 C22 35.97 22 71.94 22 109 C14.74 109 7.48 109 0 109 C0 73.03 0 37.06 0 0 Z " fill="#008752" transform="translate(2658,760)"/>
<path d="M0 0 C5.49808419 3.72026056 8.39092145 7.61160395 10.6875 13.875 C11.76102013 21.17493687 11.01658636 26.73951064 7 33 C2.43104726 38.1133386 -2.13294349 41.5087457 -9.08984375 42.2109375 C-15.74453388 42.50670151 -21.13434705 41.54104801 -26.20703125 37.04296875 C-31.40609151 31.54414285 -33.62192463 27.15882909 -34.3125 19.5625 C-33.72598553 12.87623499 -31.43250624 7.5057655 -26.8671875 2.54296875 C-18.89668152 -4.04353724 -8.99123164 -4.7164221 0 0 Z " fill="#008752" transform="translate(2495,224)"/>
<path d="M0 0 C7.62956803 5.45748786 14.26394 12.48571039 16 22 C16.86374743 34.0358249 15.46864241 43.5509257 7.76953125 53.1796875 C1.59369092 59.53275945 -5.805651 63.18089991 -14.70922852 63.38012695 C-22.24491081 63.36119534 -28.28440403 62.78764597 -35 59 C-35.96486328 58.4740625 -35.96486328 58.4740625 -36.94921875 57.9375 C-42.09072284 54.72545406 -45.07454155 50.22150008 -48 45 C-48.51433594 44.09314453 -48.51433594 44.09314453 -49.0390625 43.16796875 C-52.69748551 35.32116426 -52.33721988 24.74437012 -49.5625 16.6875 C-45.06823756 7.22589486 -37.75961929 0.62403825 -28 -3 C-18.81829052 -5.88568012 -8.34203564 -4.59738853 0 0 Z M-35.2734375 11.09765625 C-40.97217793 17.37658519 -42.36252617 23.77934679 -42.28515625 32.046875 C-41.64626473 38.66334055 -38.85937174 45.403297 -34 50 C-27.2769218 54.36192319 -21.17820402 57.051072 -13 56 C-5.31766234 53.52884805 0.51980439 49.79138381 4.3125 42.5 C8.12191368 34.40868723 8.36108998 27.12633396 5.4375 18.6875 C2.69392274 12.6574468 -1.36040255 8.75973163 -6.8125 5.125 C-17.80519606 1.24522492 -26.81539765 3.12822826 -35.2734375 11.09765625 Z " fill="#000000" transform="translate(3194,235)"/>
<path d="M0 0 C3.155625 -0.061875 6.31125 -0.12375 9.5625 -0.1875 C10.5429126 -0.21481201 11.5233252 -0.24212402 12.53344727 -0.27026367 C18.12666334 -0.32300311 22.12946592 0.15192159 27 3 C29.05022894 5.74865858 29.27314781 8.12041913 29.25 11.5 C29.25515625 12.2528125 29.2603125 13.005625 29.265625 13.78125 C28.95094116 16.40978559 28.5450411 17.83339065 27 20 C23.875 21.75 23.875 21.75 21 23 C21.5775 23.90363281 22.155 24.80726563 22.75 25.73828125 C23.50035236 26.92946562 24.25033307 28.12088415 25 29.3125 C25.3815625 29.90740234 25.763125 30.50230469 26.15625 31.11523438 C29 35.66015625 29 35.66015625 29 39 C23.87934295 39.6427829 23.87934295 39.6427829 21 39 C18.78484326 36.86073567 17.58223523 34.31428926 16.25 31.5625 C14.92137856 28.95049692 13.54017983 26.50423976 12 24 C10.68 23.67 9.36 23.34 8 23 C8 28.28 8 33.56 8 39 C5.36 39 2.72 39 0 39 C0 26.13 0 13.26 0 0 Z M8 6 C8 9.3 8 12.6 8 16 C9.79133978 16.05391993 11.58313899 16.09275571 13.375 16.125 C14.37273438 16.14820313 15.37046875 16.17140625 16.3984375 16.1953125 C19.16262173 16.27216848 19.16262173 16.27216848 21 14 C21.33333333 11.5 21.33333333 11.5 21 9 C18.41073669 6.41073669 16.97294721 6.62601957 13.375 6.375 C11.87066406 6.26285156 11.87066406 6.26285156 10.3359375 6.1484375 C9.56507813 6.09945312 8.79421875 6.05046875 8 6 Z " fill="#000000" transform="translate(3163,245)"/>
<path d="M0 0 C7.26 0 14.52 0 22 0 C22 7.26 22 14.52 22 22 C14.74 22 7.48 22 0 22 C0 14.74 0 7.48 0 0 Z " fill="#008752" transform="translate(2658,720)"/>
</svg>
